<?xml version="1.0" encoding="UTF-8"?>
<svg id="Layer_2" data-name="Layer 2" xmlns="http://www.w3.org/2000/svg" viewBox="0 0 506.49333 517.86534">
  <g id="Layer_1-2" data-name="Layer 1">
    <g>
      <path d="m376.70144,358.37202c11.43958,1.3326,22.76129,2.84901,30.85891,12.53705,3.76054,4.49915,5.80813,9.49348,6.15184,15.35728.52368,8.93487,1.39856,17.84932,1.9079,26.78477.13463,2.3622,1.54945,3.12459,3.2245,3.84409,12.47585,5.35891,18.57581,14.86673,18.65826,28.38479.06783,11.12577.88252,22.20883,1.6491,33.30565.28312,4.09802,2.32785,4.36167,5.06003,5.01351,11.9906,2.86076,19.76374,11.06454,20.69857,21.78319.57529,6.59581-1.58964,10.1591-7.42456,12.22033-21.25407-.4242-42.50783-.55087-63.76083.06589-25.89205.0679-51.78406.18561-77.67611.19329-53.28739.01583-106.57479-.02576-159.86219-.05219-1.65583-.00079-3.31162-.09494-4.96744-.1456-1.27151-.54965-2.61534-.33487-3.92879-.33523-45.24302-.01078-90.48605-.01072-135.72907-.00043-1.31464.0003-2.65674-.20352-3.9333.31977-5.91851-2.41716-8.5461-7.71539-7.34254-13.68829,2.3452-11.63846,9.94493-18.06282,20.82037-20.8621,3.72115-.95781,4.48919-2.4466,4.51975-5.99577.10132-11.77027-1.02958-23.58143.9843-35.30749,1.98247-11.5431,7.58907-20.45453,18.53492-25.30462,2.67317-1.18444,3.10049-2.83174,3.21648-5.37527.39184-8.59331-.96931-17.28837,1.12998-25.77578,2.57561-10.4131,8.26693-18.34644,18.70522-22.15171,6.55554-2.38982,13.29831-4.05527,20.25356-4.78761,1.78766.58622,3.63107.29672,5.44589.29766,37.40846.01918,74.82061.32095,112.22372-.12669,16.4434-.19679,32.89532.00938,49.27889-.54514,1.13639-.84606-.25831-1.11769-.42388-1.66141-1.86515-.7982-4.17178.55276-5.84086-1.19993-8.43452-.55026-16.47295-3.06936-24.6333-4.97655-1.28201-.29964-2.57156-.68986-3.44464-1.81523-24.30561-6.3648-48.64416-12.60711-72.9075-19.12918-23.82505-6.40432-38.23931-24.31216-38.72357-47.61679-.41416-19.93167,10.99391-35.91924,30.01154-42.05896,6.8297-2.20492,7.3502-3.42993,6.08974-10.47491-1.01206-5.65665-4.34592-9.9551-7.3771-14.48808-3.04873-4.55928-2.93469-5.55459,2.05684-6.95513,3.63317-1.01939,4.92853-3.29261,5.73346-6.575,7.29964-29.76645,14.65977-59.51809,22.03819-89.26514,1.13068-4.55843-.55056-8.4063-2.55605-12.30916-1.9687-3.83127-2.48611-6.77103,3.35572-8.04021,5.17426-1.12416,9.57357-4.36888,13.28996-8.37647,2.46598-2.65919,2.75274-4.70085.13249-7.64251-6.69552-7.51675-11.70505-16.10603-14.16282-25.95521-2.13086-8.53911-1.53402-17.12134,3.48887-24.354,8.67751-12.49504,20.44956-21.36386,35.53745-24.50777,8.53923-1.77935,17.23164.61015,25.53707,2.64178,36.76454,8.99314,73.50273,18.11588,110.09922,27.76546,20.02302,5.27957,32.6111,18.33961,36.50658,39.09707,1.32123,7.04013.85265,13.90686-2.58317,20.28778-7.21683,13.40294-18.1509,22.35116-32.99826,25.87404-3.77241.89509-2.99463,2.9634-2.57252,4.9484,1.38285,6.50247,4.57544,12.07924,9.63532,16.45264,1.8397,1.59007,2.67162,3.25665.22567,4.60254-11.40155,6.27358-11.90687,17.93906-13.91256,28.58758-2.10708,11.18678-1.65541,11.22293,9.59598,13.72494,5.32053,1.18313,10.67564,2.32242,15.86169,3.9658,4.75507,1.50681,9.16464,1.3445,13.3602-1.22778,9.34945-5.73213,23.59687-3.03375,28.77499,8.50187,3.19396,7.11544,9.90653,8.0732,16.28998,9.59694,26.87331,6.41468,53.7436,12.84374,80.65521,19.09443,4.76573,1.10694,5.68044,2.99531,4.47424,7.84394-3.79251,15.24542-7.82353,30.44877-10.53337,45.95375-1.36282,7.79775-1.54148,7.7811-9.16537,5.89331-28.6385-7.09139-57.29454-14.11402-85.89143-21.36958-4.6286-1.17439-8.51431-.97425-12.5647,1.73406-5.66399,3.78727-11.91281,5.75855-18.8203,3.80414-3.90397-1.1046-7.96076-2.58195-9.67197-6.41833-3.60066-8.07237-10.11823-11.18251-18.255-12.34726-6.03964-.86455-11.96715-2.32286-17.81331-4.09685-1.23372-.37438-2.70715-1.05646-3.73609.1736-1.05107,1.25654.11469,2.56359.56363,3.71151q3.39743,8.68733-5.31081,12.41763c-1.36324.58585-2.70788,1.24588-3.981,2.00581-9.63288,5.75008-10.38591,9.33773-2.74573,17.35569,20.2876,21.29069,14.83037,63.131-22.64152,74.81413-1.60356.49996-3.14092.934-4.44166,2.00803.91008,1.06368,2.15068.67434,3.25994.67504,29.99952.01879,59.99905.01803,89.99857.01519.82985-.00006,1.65815.00789,2.43858-.33898Z" fill="#111d2a" stroke-width="0"/>
      <path d="m258.64093,358.02397c-.38232,2.68374-2.43353,1.08119-3.47794,1.08575-27.07285.11817-54.1463.09302-81.21965.0925-26.74115-.00052-53.48234.01029-80.22344-.02798-1.76651-.00253-3.67827.57931-5.26961-.77472,21.89806-.1048,43.79619-.20245,65.69423-.31614,31.0245-.16104,62.04896-.33219,93.07335-.51135.82072-.00475,1.64061-.15203,2.46088-.23284,2.91474,1.17926,6.06187-.68338,8.96217.68478Z" fill="#0b111c" stroke-width="0"/>
      <path d="m221.05609,348.37222c9.50006,1.68172,18.89628,3.79275,28.07783,6.79178-9.81504,2.21084-19.76211.55276-29.63774.99864-1.05066.04744-2.07122-.30065-2.23039-1.49333-.21579-1.61683-.61295-3.40679.81586-4.66518.82815-.72945,1.97242-1.09991,2.97444-1.6319Z" fill="#edefe3" stroke-width="0"/>
      <path d="m7.62825,517.64816c1.58557-1.37394,3.50028-.77941,5.2648-.78081,44.35636-.03422,88.71275-.03514,133.0691-.00225,1.76285.00134,3.68074-.59666,5.25726.79896-35.9007.05669-71.80138.13312-107.70209.15888-11.96298.00859-23.92605-.11278-35.88907-.17477Z" fill="#000d12" stroke-width="0"/>
      <path d="m376.70144,358.37202c-1.40349,1.30446-3.14467.79607-4.74466.79777-28.64301.03054-57.28605.03733-85.929-.00953-1.70394-.00277-3.7058.77847-5.02352-1.13949,31.89911.11707,63.79816.23415,95.69718.35125Z" fill="#000712" stroke-width="0"/>
      <path d="m393.72515,517.66856c.92487-.93519,2.11765-.80523,3.26855-.8056,19.23367-.0067,38.46737-.00779,57.70103-.01309,1.00157-.00024,1.99814-.00798,2.79121.7528-21.25358.02192-42.50719.04391-63.7608.06589Z" fill="#010711" stroke-width="0"/>
      <path d="m258.64093,358.02397c-2.98686-.22836-5.97374-.45672-8.96138-.68493,1.70493-.64885,3.71676.36468,5.29532-.9751,1.57981-.23686,2.75273.42494,3.66606,1.66004Z" fill="#edefe3" stroke-width="0"/>
      <path d="m235.90258,444.97557c-.97601,4.76968,1.31483,6.15443,5.75759,6.1189,16.95196-.13556,33.90546-.07341,50.85838-.08151,1.32939-.00064,2.65987-.00228,3.98788.04799,1.73.06546,2.93991,1.12369,3.08524,2.67585.15324,1.6365-1.16458,2.72679-2.68837,3.11829-1.0997.28256-2.30715.19003-3.46652.18975-80.60937-.01866-161.21874-.04512-241.82811-.06918-2.10006-.00064-4.21464.59943-4.16936-3.00633.04369-3.4795,2.04822-3.07305,4.21352-3.14369,2.97337-.09698,5.98655.31541,8.89622-.7155,1.70551-.60424,2.90048-1.5387,2.98701-3.51174.09688-2.20914-1.59751-2.98365-3.13868-3.25278-2.72924-.47667-5.54433-.46172-8.34373-.65388,1.94794-6.62224,7.76561-11.44006,14.96522-11.72764,6.7919-.27126,13.60785.05953,20.41323.12548,1.56927.82557,3.26353.43641,4.89604.4373,33.55175.01784,67.10349.03322,100.64408.0081.32779.01742.90186.08726.90021.19758-.08495,5.72228,4.12113,4.92177,7.70447,5.13542,9.54824.5692,18.94535,2.30444,28.38071,3.74004,2.73503.41614,5.1772,1.25967,5.94495,4.36755Z" fill="#ebede1" stroke-width="0"/>
      <path d="m298.9638,386.24769c-21.10272.08413-42.20547.1632-63.30809.26216-1.6558.00776-3.34164-.01608-4.95936.2754-2.54178.458-4.42077,2.01695-4.26574,4.70388.16083,2.78729,2.19649,3.77332,4.90207,3.76306,8.8104-.03343,17.62114.02357,26.43176.05015,1.16306.0035,2.3512-.11248,3.48317.08379,1.68798.2927,3.5012,1.01109,3.48083,2.94924-.0236,2.2409-1.78465,2.85059-3.86616,2.83238-6.81536-.05959-13.6314-.04488-20.44717-.05225-54.69243-.05913-109.38487-.1091-164.07724-.203-2.19052-.00375-5.31553,1.23729-4.93176-3.21911.1652-1.91827.65989-2.64683,2.59291-2.59373,2.98889.08215,5.98315-.02777,8.97509-.06065,2.55136-.02804,4.13702-1.32541,4.36649-3.83361.24747-2.70487-1.53156-3.85666-3.93134-4.19092-1.31168-.18272-2.66172-.09472-3.97121-.28716-1.25819-.18491-2.97306.68907-3.6952-.58936-.89823-1.59019.78076-2.6809,1.65481-3.77762,3.07748-3.86153,7.59939-5.15811,12.03757-6.57389,2.21776-1.01082,4.57547-.60501,6.87202-.60598,55.21749-.02378,110.43497-.01839,165.6458-.01866,3.94559.00207,7.99687.56615,11.8309-.10742,10.02065-1.76048,17.33128,2.99973,24.26937,9.08785.63999.56162,1.14914,1.169.91047,2.10543Z" fill="#eeefe4" stroke-width="0"/>
      <path d="m253.87076,238.56455c-23.80584-5.80209-47.61149-11.60488-71.41763-17.40569-4.98861-1.21558-9.97109-2.45798-14.97288-3.6169-1.74687-.40476-3.02561-.57952-2.37943-3.14119,7.78281-30.85396,15.45287-61.73641,23.09937-92.62456.7024-2.83733,1.52564-4.00393,5.00276-3.09709,21.1535,5.51686,42.39434,10.69859,63.59904,16.02013.77288.19399,1.47291.67831,2.20692,1.02732,3.20699,3.78043,6.68983,7.33325,9.58401,11.36881.8508,1.18634,2.74509,2.33554.89534,4.1806-1.65051.73479-3.2459.24159-4.86136-.1778-13.98067-3.6295-28.14492-6.49334-42.13197-10.10404-3.11145-.80321-7.61137-2.42604-8.62897,1.76111-1.11853,4.60246,4.09655,4.18352,6.94471,5.11813,4.41045,1.44729,9.07569,1.98804,13.55606,3.24497,1.60153.44931,3.22518.84976,4.62169,1.79439,1.88838,1.27732,3.44338,2.87025,2.60273,5.35724-.85678,2.53472-2.92172,3.48131-5.51264,3.30325-1.66445-.11441-3.26167-.60456-4.87441-.99496-8.71416-2.10954-17.35539-4.52406-26.12219-6.40524-2.80064-.60094-5.95158-2.0483-8.26734,1.08735-2.45102,3.31878-.13396,5.90517,1.54087,8.54591-1.11127,2.93478-4.53096,4.89344-3.67635,8.67335-4.83903,9.2751-6.01402,19.61927-8.54729,29.55584-.93536,3.66898,1.64023,5.48805,4.77929,6.41641,6.53015,1.93131,13.14292,3.58088,19.79259,5.01885,15.26433,3.30087,30.23102,7.76411,45.40441,11.41322,2.09545.50393,4.22598.99677,5.73079,2.75197.28376.41489.63965,1.05125.38283,1.3607-2.70365,3.25758-5.52476,6.41545-8.35096,9.56789Z" fill="#eef2e9" stroke-width="0"/>
      <path d="m67.76803,497.70854c-9.2807-.12112-18.5616-.23016-27.84185-.37926-1.1027-.01769-2.54391.54128-3.20952-.61974-.78616-1.37127.39236-2.57488,1.14205-3.57176,3.98605-5.30018,9.47073-7.5479,15.99134-7.54936,49.64603-.01102,99.29207-.03221,148.9381-.03294,26.89864-.00043,53.79727.02469,80.69588.06708,2.14867.00338,4.29701.23171,6.4455.35551,5.61933,2.40848,11.15755,5.00069,16.85817,7.22779,2.88167,1.12579,5.82807,1.12859,8.80671,1.12917,35.46826.00664,70.93656.00618,106.40482.00597,2.14633,0,4.31939-.22873,6.38768.61027.3853.693,1.96039,1.56543.17166,2.08086-1.54157.44418-3.29477.18321-4.95441.18388-114.51315.0454-229.02632.08392-343.53947.14161-1.97618.001-3.95223.22861-5.92835.35049-2.1227,1.05783-4.24548,1.05695-6.36832.00043Z" fill="#eff0e3" stroke-width="0"/>
      <path d="m269.96746,150.75631c-2.87013-3.40432-5.72738-6.81965-8.61661-10.2077-1.20516-1.41322-2.18326-2.91225-2.34198-4.82205,14.24035,2.38787,27.96631,6.87355,41.95483,10.28833,4.18274,1.02105,8.32118,2.33643,12.56147,2.97692,4.23742.64004,5.3591,2.15878,4.21434,6.52545-6.97752,26.61548-13.68665,53.30142-20.449,79.97308-.89671,3.53674-1.59092,7.12494-2.37209,10.69084-.36661,1.67359-1.06721,2.73661-3.08067,2.1272-12.51632-3.78812-25.53168-5.63529-37.96698-9.74381.67561-5.02799,5.18632-6.98375,8.15193-10.1773,4.07843-2.20198,7.7385.36194,11.46348,1.19975,6.96573,1.5667,8.4265,1.0305,10.41895-5.87003,5.29017-18.32196,10.28148-36.72853,15.33868-55.11579,1.73962-6.32519.57459-8.24164-5.86439-10.10739-6.21151-1.79984-12.54576-3.15244-18.78979-4.83563-1.75938-.47428-4.1227-.29538-4.62218-2.90187Z" fill="#d4d6c9" stroke-width="0"/>
      <path d="m428.38691,494.95128c-1.61473,1.13042-3.46274.94755-5.28207.94737-37.14574-.00399-74.29481.25735-111.43462-.2139-8.07919-.10252-15.51329-4.16845-21.74072-9.70667,21.37817-.07962,42.75624-.20004,64.13444-.22657,18.89982-.02345,37.79986.1069,56.69959.06833,7.52769-.01535,13.44554,2.81226,17.62338,9.13145Z" fill="#d8d9cb" stroke-width="0"/>
      <path d="m240.86022,290.43888c-9.68388-2.21194-19.36951-4.41627-29.05034-6.64142-2.2994-.52852-4.56498-.97407-6.58715.77095-.65947.17556-1.19053.50121-1.48278,1.16044-2.77812,6.26691-2.76961,6.23689-9.44822,3.90367-3.57654-1.24947-7.26273-1.87552-11.07183-1.49738-15.43063-3.14128-30.70045-6.93552-45.81434-11.35133-4.94393-1.44443-4.97799-1.90198-1.7782-6.12097,4.91819-6.48489,11.59875-7.32919,18.77852-5.65715,17.44293,4.06219,34.82432,8.38866,52.22901,12.61487,13.46055,3.26849,26.91882,6.54636,40.37811,9.82006-1.01641,3.12262-3.45365,3.32921-6.1528,2.99827Z" fill="#eff1e5" stroke-width="0"/>
      <path d="m254.00509,431.11512c15.10859-.07542,30.21709-.19767,45.32575-.21661,32.05737-.04022,64.11484-.04607,96.17224-.02159,8.06784.00615,13.13679,3.42628,15.2829,10.06554-4.72225,1.24664-9.57247.78897-14.28313.45855-34.56291-2.42404-69.17684-1.424-103.76627-2.00508-8.91748-.14984-17.83849-1.1844-26.79695-.86245-3.61242.12983-6.84547-1.18066-9.83084-3.06062-1.52156-.95814-3.18699-2.04965-2.1037-4.35775Z" fill="#d6d5c8" stroke-width="0"/>
      <path d="m254.00509,431.11512c2.28699,4.57347,6.67448,5.65292,11.0442,5.83488,32.47114,1.35208,64.96518,1.0919,97.45425,1.0254,3.70729-.00758,7.29599.06239,10.53842,2.16033,1.46877.95035,3.16443.89423,4.83156.88994,10.97085-.02826,21.9417-.05548,32.91249-.08312-.82367,2.56219-2.8986,1.10719-4.27305,1.11139-53.96525.166-107.93077.23594-161.89629.30811-3.1772.00426-6.37556-.14801-8.71408,2.61352-2.22056-2.59236-5.28573-2.86716-8.40961-3.36316-9.69671-1.5397-19.39414-3.10078-29.20729-3.54709-6.7654-.30771-6.77485-.09987-4.12865-6.02929,5.87045-1.24661,11.80196-.17815,17.70521-.37463,11.7441-.39092,23.51046-.09841,35.26745-.13568,1.62718-.00518,3.3155.39226,4.88026-.43002.66504.00649,1.3301.01294,1.99514.01943Z" fill="#f2f3ea" stroke-width="0"/>
      <path d="m207.89166,467.07464c1.9397,1.16909,4.57727,2.07377,3.6047,5.04164-.87222,2.66169-3.40094,2.78689-5.81933,2.78491-43.35919-.03529-86.71838-.05484-130.07755-.09421-2.32433-.0021-5.09064.19858-5.2093-3.10712-.13126-3.65689,2.61314-4.11681,5.4927-4.11882,24.4207-.01717,48.84141-.03103,73.26206-.07697,1.80469-.00338,3.60892-.24821,5.41336-.38082.77266-.88254,1.82145-.64748,2.78695-.64824,15.90959-.01264,31.81917-.01218,47.72877-.00097.97067.0007,2.01005-.21219,2.81764.60059Z" fill="#eeede4" stroke-width="0"/>
      <path d="m298.9638,386.24769c-3.17651-2.02383-6.53954-3.7725-9.17119-6.57453-2.77502-2.95469-6.20077-3.67903-10.22214-3.49673-5.61592.25458-11.26025-.11765-16.89242-.22166.79453-1.95176,2.52773-1.24853,3.88881-1.25005,33.36398-.03748,66.72797-.03167,100.09198-.02113.96911.0003,2.01693-.22568,2.79928.64106,3.82509.8577,7.96742.4095,11.41111,2.84057,2.89982,2.04712,5.31797,4.41341,5.993,8.40791-3.1911,0-6.22552.00192-9.25991-.00033-24.56345-.01821-49.12693-.03209-73.69035-.06735-1.64953-.00237-3.29879-.16804-4.94817-.25774Z" fill="#d3d6cb" stroke-width="0"/>
      <path d="m272.17316,36.0283c-2.7084,3.29008-.88426,5.18775,2.06981,6.73828.87324,3.54934.12337,4.37644-3.35584,3.33731-6.73827-2.01252-13.82299-2.56397-20.47287-4.97788-1.3094-.47531-2.87619-.59935-4.35782-.32071-16.57855-3.93443-33.1571-7.86887-49.80632-11.82007,3.8373-7.21196,13.63589-12.04741,22.60773-10.50987,11.58791,1.98587,23.04457,4.69905,34.21813,8.45813,5.74252,2.85833,12.08096,3.81396,18.17093,5.51701,3.17892.88898,2.0035,2.03547.92624,3.57779Z" fill="#eff1e5" stroke-width="0"/>
      <path d="m198.10387,58.96374c-.52115-.82329-1.25469-1.58264-1.52525-2.48138-.96672-3.21102-.89012-4.97243,3.62405-4.0153,22.06321,4.67803,43.84733,10.43883,65.63323,16.2234,23.38377,6.20885,47.11716,11.04034,70.3712,17.76076,1.8865.5452,5.02742.15786,4.97959,3.03732-.04448,2.67624-2.49835,4.18378-4.92631,5.03855-2.83682.99869-5.83565,1.67431-8.80623.97992-5.94666-1.39005-11.83447-3.03177-17.74657-4.5696-.2696-2.84684-1.76084-4.20171-4.64248-4.88828-27.72967-6.60682-55.22916-14.11003-82.77147-21.44728-8.00009-2.13123-16.23106-3.30717-24.18977-5.63812Z" fill="#d3d4c7" stroke-width="0"/>
      <path d="m290.90826,124.93138c-19.93567-4.85164-39.88047-9.66627-59.80346-14.56947-11.09338-2.73018-22.15253-5.5999-33.22108-8.43025-1.21488-.31066-3.13415-.19472-3.1731-1.67601-.02688-1.02231,1.26227-2.27816,2.24286-3.09335,4.0944-3.40384,8.97729-4.72431,13.99-3.21405,24.41411,7.35569,49.39573,12.4748,74.00348,19.05476,3.95439,2.99285,6.54311,6.66827,5.9613,11.92837Z" fill="#f0f2e6" stroke-width="0"/>
      <path d="m170.18617,411.94898c2.80231.2958,5.58879.87968,5.16953,4.53666-.39104,3.41093-3.26549,3.19779-5.77811,3.1984-25.72188.00603-51.44377-.00636-77.16564.01885-2.22422.00216-4.55269.10285-5.55608-2.29981-1.10848-2.65435,1.30155-3.74053,2.82072-5.15363.94166-1.00354,2.17524-.64279,3.29477-.64358,24.92519-.01827,49.85038-.01681,74.77558-.01422.83213.00006,1.66267-.01163,2.43922.35734Z" fill="#f3f2e8" stroke-width="0"/>
      <path d="m198.10387,58.96374c1.23365-1.74216,2.60136-.54958,4.00329-.26221,15.71274,3.22088,31.15961,7.50546,46.67463,11.52631,19.49354,5.05191,39.01658,9.99203,58.55879,14.85209,3.86552.96134,4.85707,2.57666,2.36697,5.85747-23.8064-5.833-47.6159-11.65337-71.41777-17.50497-10.13965-2.49278-20.26341-5.05014-30.39403-7.57958-4.14971-1.0361-7.76663-2.83194-9.79189-6.88912Z" fill="#f1f2e8" stroke-width="0"/>
      <path d="m230.04843,267.55185c-16.28326-2.94967-32.07771-7.94132-48.2057-11.54684-7.56016-1.69015-15.05383-3.67772-23.1949-5.68249,5.57646-5.52291,11.77229-5.98263,18.27512-4.4232,13.49703,3.23669,26.95662,6.63264,40.40539,10.0658,5.28159,1.34828,10.49296,2.97165,15.73631,4.46974-.42184,2.61967-2.13517,4.69195-3.01623,7.11699Z" fill="#f2f4e9" stroke-width="0"/>
      <path d="m369.45812,375.32467c-26.00071.03876-52.00157.03614-78.00204.1379-9.59315.03754-19.18535.32098-28.77801.49226-30.69794-.05782-61.39581-.13592-92.09373-.16722-27.04968-.02756-54.09943-.0028-81.14914-.00113.54873-2.07136,2.25296-1.60739,3.67227-1.60748,93.21554-.00591,186.43109.00256,279.64663.0215.31287.00006.62568.16996.99968.27824-1.30238,1.12159-2.94506.26252-4.29567.84594Z" fill="#010a14" stroke-width="0"/>
      <path d="m493.39514,246.59209c-9.77631-2.42911-19.58237-4.84754-29.37893-7.3039-15.58024-3.90658-31.15415-7.83856-46.73107-11.7584-.16064-.04044-.34283-.02756-.48669-.0976-1.88884-.9197-5.56544-.31194-4.88018-3.59663.7274-3.48672,4.03855-1.62006,5.85572-1.08974,12.08519,3.52677,24.40543,6.06336,36.61333,9.06674,11.57686,2.84813,23.13849,5.75943,34.68658,8.72186,2.05767.52783,4.25262.92595,5.85538,2.54311.69884.70513,1.45842,1.5311,1.07217,2.60317-.44236,1.22781-1.63519.75301-2.60631.91139Z" fill="#f7f8f2" stroke-width="0"/>
      <path d="m67.76803,497.70854c2.12281-.00012,4.24561-.00024,6.36837-.0004,2.32058.09345,4.6412.26846,6.96183.26871,112.39587.01248,224.79176.0099,337.18763.00898,1.74891-.00003,3.49779,0,5.24669,0-.00697.22839-.01394.45678-.02089.68518H38.65411c-.00263-.32083-.00526-.64164-.00789-.96247h29.12181Z" fill="#010b18" stroke-width="0"/>
      <path d="m230.04843,267.55185c-1.46215-3.41821,1.04039-5.15598,3.01624-7.11699,13.59905,2.78077,27.01418,6.29867,40.35204,10.11824,4.1937,1.20097,5.91079,4.43219,6.8318,9.11741-16.9932-4.10229-33.59664-8.11046-50.20008-12.11866Z" fill="#d8dbd1" stroke-width="0"/>
      <path d="m272.17316,36.0283c-.91848-.69542,1.29687-2.39309-1.51779-2.93637-6.1916-1.19508-12.20387-3.32563-18.26873-5.14306-.19232-.05763-2.16772.69327-.74047-.85707.24493-.26606.94168-.1161,1.42978-.15832,27.31536,6.64268,54.63203,13.27995,81.9427,19.94171,1.60347.39112,3.2512.79629,4.70886,1.53114,1.31039.6606,2.72752,1.78918,1.9585,3.5338-.76747,1.74105-2.27974.69256-3.47288.38957-18.30733-4.64909-36.60459-9.3379-54.9174-13.96532-3.67154-.92775-7.23223-2.43337-11.12257-2.33609Z" fill="#f6f8f4" stroke-width="0"/>
      <path d="m67.80666,429.17085h327.54391c.00018.15821.00037.31642.00052.47463H67.57813c.07617-.15821.15235-.31642.22852-.47463Z" fill="#000815" stroke-width="0"/>
      <path d="m206.10216,317.41483c20.21826,5.07237,40.43727,10.14178,60.65206,15.22791.79892.20102,1.62956.44588,2.31896.87395,1.15928.71989,2.22104,1.7311,1.7096,3.23503-.59623,1.7533-2.06144,1.22597-3.35636.90818-8.04065-1.97341-16.10278-3.86369-24.11738-5.93777-13.11865-3.39491-26.20642-6.90925-39.30723-10.37319.30988-1.51973-.55615-3.66733,2.10035-3.93412Z" fill="#d9e0d8" stroke-width="0"/>
      <path d="m290.90826,124.93138c-1.21616-4.36145-3.53557-8.17148-5.9613-11.92837,8.92743,2.38194,17.86117,4.74087,26.777,7.16539,1.76629.48031,3.37847,1.36958,4.62108,2.77348,2.11518,2.38966,4.80093,5.32969,3.36254,8.21676-.97764,1.96231-4.55687-.0484-6.79953-.6292-7.32525-1.89708-14.92762-2.72333-21.99979-5.59807Z" fill="#d2d4cc" stroke-width="0"/>
      <path d="m206.10216,317.41486c-2.55003.3236.84174,3.81979-2.10035,3.93409-7.2401-.70287-14.03855-3.29026-21.04452-4.98385-11.92014-2.88153-23.7916-5.96626-35.66525-9.03627-1.80093-.46561-4.58841-.62309-3.82682-3.42786.66535-2.45029,3.01666-1.35135,4.7001-.95397,18.13738,4.28099,36.37399,8.17735,54.14344,13.89903,1.20101.38672,2.52604.38818,3.79341.56883Z" fill="#eff2ed" stroke-width="0"/>
      <path d="m183.21991,288.13514c3.89397-1.27334,7.84308-1.54415,11.46891.5417,4.05277,2.33145,6.80454,2.00328,8.28985-2.84563.25831-.84323.51855-2.6116,2.24411-1.26284-2.69564,4.24783,1.42129,4.31183,3.38934,4.82972,8.30549,2.18579,16.71519,3.97258,25.07176,5.96824,4.65553,1.11179,9.28672,2.32749,13.91829,3.53689,1.80855.47228,3.86135,1.12987,3.17359,3.51674-.67932,2.35754-2.77663,1.21851-4.21795.87648-21.12243-5.01244-42.22817-10.09528-63.33789-15.16132Z" fill="#f2f6f2" stroke-width="0"/>
      <path d="m329.78623,203.44451c.09037-3.47706,1.28305-5.05178,5.20681-3.98441,7.14765,1.94433,14.398,3.52243,21.63508,5.11947,2.0468.45168,2.87245,1.2517,2.16855,3.35236-.72965,2.17759-1.34312,4.39413-2.00743,6.59363-1.26962,1.08749-2.7471.94555-4.21136.64424-6.76019-1.39112-13.2481-3.74825-19.85539-5.67896-3.02778-.88473-4.20542-2.93917-2.93626-6.04634Z" fill="#eff2e5" stroke-width="0"/>
      <path d="m240.86022,290.43885c2.05094-.9994,4.10188-1.99883,6.1528-2.99823,12.74701,2.00142,25.05477,5.8104,37.4784,9.13827.93955.25168,1.84889.74315,2.66982,1.27989,1.16013.75856,2.08199,1.86112,1.59305,3.3131-.61934,1.83925-2.15421,1.09251-3.35929.78258-14.85004-3.81863-29.69128-7.67155-44.53479-11.5156Z" fill="#d8e2dd" stroke-width="0"/>
      <path d="m329.78623,203.44451c-.60793,3.25511,1.50929,4.48839,4.05828,5.05181,7.73016,1.70872,14.96921,5.27431,22.94473,6.02926-.07566.65684-.1807,1.31183-.22226,1.97084-.26507,4.20337-1.9118,5.47785-6.31832,4.15231-6.50009-1.95531-13.23056-3.16957-19.89612-4.53767-2.75964-.56641-4.28343-1.52031-2.9706-4.60494,1.10195-2.58927.85594-5.59496,2.4043-8.06162Z" fill="#d1d4c7" stroke-width="0"/>
      <path d="m246.05643,40.80529c2.0243-1.75027,4.09603-.76753,6.05421.03392,6.46641,2.6466,13.77306,1.57463,20.17806,4.82944,2.36414,1.20139,1.06913-2.03201,1.95427-2.90206,9.01165,2.11063,18.01812,4.24368,27.03866,6.31562,2.16825.49803,3.22937,1.96111,2.94908,3.91962-.393,2.746-2.63737,1.99472-4.32203,1.57582-15.31191-3.80745-30.61987-7.63294-45.8951-11.58409-2.6571-.6873-5.55991-.55047-7.95715-2.18826Z" fill="#f4f6f1" stroke-width="0"/>
      <path d="m372.4297,231.32943c1.4083-5.32186,2.81661-10.64372,4.22491-15.96558,3.81878,1.59316,8.17793.18669,11.93016,2.14935-.65073,5.86347-1.73064,11.63456-3.70464,17.21321-4.36137-.35804-8.56357-1.29953-12.45043-3.39698Z" fill="#e4e9e1" stroke-width="0"/>
      <path d="m372.4297,231.32943c.58695.26357,1.38851.91814,1.72836.73156,4.43986-2.43755,7.1812,1.70505,10.7221,2.66537-.79706,4.64914-2.5242,8.89441-5.98234,12.17886-1.80651,1.7158-4.0527,3.07417-6.69567,1.79964-2.78653-1.34377-2.77818-3.97804-2.20421-6.43637.84955-3.63864.71217-7.49947,2.43176-10.93907Z" fill="#fcfcfc" stroke-width="0"/>
      <path d="m252.00994,431.0957c-1.4994,1.54144-3.42514.8925-5.16429.902-10.7211.05843-21.45476-.27918-32.15972.14037-6.86433.26901-13.68735-.16138-20.52885-.10209-33.67757-.00368-67.3551.00569-101.03254-.04558-1.90491-.00289-4.01145.72841-5.69247-.90081,22.87182-.12045,45.74352-.3159,68.61541-.34272,30.00564-.0352,60.01142.058,90.01711.11327,1.98192.00365,3.96357.15367,5.94535.23558Z" fill="#fdfdfa" stroke-width="0"/>
      <path d="m388.58477,217.51321c-4.03572-.38893-8.52478,1.73874-11.93016-2.14934-.01449-3.08075,1.15478-5.79965,2.7151-8.34706,1.28183-2.09264,3.16175-3.50509,5.73414-3.16517,2.74408.36261,3.68019,2.73413,4.25003,4.93661.75486,2.9175.48964,5.90459-.76911,8.72495Z" fill="#fafbfb" stroke-width="0"/>
      <path d="m207.89166,467.07461c-17.77781.01623-35.55561.0324-53.33339.04863-22.73865-.09262-45.47735-.18762-68.21606-.27583-3.95134-.01532-7.90279-.00213-12.38638-.00213,1.54715-1.24981,2.74261-.87767,3.84661-.87813,42.66962-.01818,85.33926-.01729,128.00885.01909,1.04878.00088,2.22074-.53692,3.171.38188.03046.0295-.07344.2913-.16828.33965-.29355.14962-.61299.24834-.92236.36684Z" fill="#010a15" stroke-width="0"/>
      <path d="m144.71075,290.90151c-4.32595-1.20822-9.57928-2.60241-14.7796-4.17217-1.5649-.4724-3.34898-1.38786-2.76575-3.46318.60753-2.16176,2.56672-1.71557,4.15523-1.32937,5.12578,1.24628,10.23529,2.56216,15.33374,3.91655,1.67171.44409,3.26758,1.1929,2.5667,3.40033-.53994,1.70059-1.93806,2.06801-4.51033,1.64783Z" fill="#f0f1ec" stroke-width="0"/>
      <path d="m201.53016,43.12841c-3.37662-.75467-6.7578-1.48964-10.1283-2.27066-2.41914-.56057-2.41942-2.48339-2.15647-4.32135.3174-2.21857,2.27174-1.76093,3.54647-1.52311,3.39874.63411,6.7395,1.58382,10.09655,2.43473,1.72292.43671,3.21657,1.21965,2.89549,3.33653-.38702,2.55169-2.34351,2.3167-4.25374,2.34386Z" fill="#f3f4f3" stroke-width="0"/>
      <path d="m170.18617,411.94898c-26.83648.10014-53.67295.20026-80.5095.30043-.60516-1.95882,1.00325-1.13602,1.61104-1.13691,25.38467-.03706,50.76941-.02463,76.15414-.0197,1.00577.00018,1.99922.02655,2.74433.85617Z" fill="#01090a" stroke-width="0"/>
      <path d="m269.96746,150.75631c6.93459,2.76893,14.34244,3.78205,21.48013,5.79629,2.06561.58293,4.17288,1.09362,6.1449,1.91598,3.29547,1.37425,4.80208,3.53673,3.69742,7.4524-5.71006,20.24067-11.1697,40.55192-16.86545,60.79671-1.44216,5.126-3.88637,6.14729-8.93039,4.83492-4.46236-1.16101-8.78427-2.95387-13.4713-3.16533-11.64725-4.39779-23.91677-6.53061-35.87876-9.7782-11.65734-3.16491-23.46701-5.76616-35.19492-8.67486-6.32598-1.56894-7.42447-3.60289-5.81953-10.01248,1.73026-6.91005,3.42235-13.8304,5.04135-20.76721.66011-2.82836,1.77695-5.31202,4.13153-7.1183,1.7251-2.6482,4.15377-1.40455,6.2201-.88994,7.86109,1.95773,15.80883,3.54329,23.64837,5.58632,1.11926.29169,2.23704.60807,3.39058.73254,1.16686.12587,2.5015.27259,3.03547-1.02451.71301-1.73197-.80342-2.39143-1.96059-2.85805-5.22707-2.10779-10.8329-2.96847-16.15793-4.75747-4.64597-1.5609-9.82217-1.39623-14.04163-4.328-4.15752-1.65967-5.29147-4.73558-3.87544-8.7765,1.48784-4.24585,4.49295-4.41461,8.43627-3.37731,10.24555,2.69511,20.58528,5.033,30.89211,7.49378,2.60779.62262,5.85238,1.59182,6.65577-1.96161.82615-3.65404-2.50459-4.50691-5.30718-5.16807-5.96088-1.40622-11.95321-2.68282-17.89687-4.1568-3.10586-.77022-6.53598-1.7869-5.56652-6.05368.97843-4.30629,4.44454-4.40147,7.93981-3.56832,15.62028,3.7234,31.22504,7.51189,46.83999,11.25775,1.11876.26839,2.27426.38356,3.41269.56998Z" fill="#111d29" stroke-width="0"/>
      <path d="m198.43683,164.4971c10.79455,1.60791,21.14795,4.95459,31.56558,8.03995,2.07628.61493,3.77225,1.73978,2.67753,4.28421-.86174,2.00296-2.12364,2.80624-4.69834,2.13485-9.3997-2.45122-18.91165-4.46878-28.3483-6.78427-1.82859-.44868-3.53539-.72727-5.33086-.13562-2.34695-4.55609.39297-6.32225,4.13439-7.53913Z" fill="#f9fbfa" stroke-width="0"/>
    </g>
  </g>
</svg>